<svg width="16" height="16" viewBox="0 0 16 16" fill="none" xmlns="http://www.w3.org/2000/svg">
<path d="M4.75 11C4.54167 11 4.36458 10.9125 4.21875 10.7375C4.07292 10.5625 4 10.35 4 10.1C4 9.85 4.07292 9.6375 4.21875 9.4625C4.36458 9.2875 4.54167 9.2 4.75 9.2H11.25C11.4583 9.2 11.6354 9.2875 11.7812 9.4625C11.9271 9.6375 12 9.85 12 10.1C12 10.35 11.9271 10.5625 11.7812 10.7375C11.6354 10.9125 11.4583 11 11.25 11H4.75ZM4.75 6.8C4.54167 6.8 4.36458 6.7125 4.21875 6.5375C4.07292 6.3625 4 6.15 4 5.9C4 5.65 4.07292 5.4375 4.21875 5.2625C4.36458 5.0875 4.54167 5 4.75 5H11.25C11.4583 5 11.6354 5.0875 11.7812 5.2625C11.9271 5.4375 12 5.65 12 5.9C12 6.15 11.9271 6.3625 11.7812 6.5375C11.6354 6.7125 11.4583 6.8 11.25 6.8H4.75Z" fill="#1F1F1F"/>
</svg>
