<svg width="16" height="16" viewBox="0 0 16 16" fill="none" xmlns="http://www.w3.org/2000/svg">
<path d="M4.44444 9C4.28704 9 4.15509 8.9441 4.04861 8.83229C3.94213 8.72049 3.88889 8.58194 3.88889 8.41667C3.88889 8.25139 3.94213 8.11285 4.04861 8.00104C4.15509 7.88924 4.28704 7.83333 4.44444 7.83333H6.38889C6.5463 7.83333 6.67824 7.88924 6.78472 8.00104C6.8912 8.11285 6.94444 8.25139 6.94444 8.41667C6.94444 8.58194 6.8912 8.72049 6.78472 8.83229C6.67824 8.9441 6.5463 9 6.38889 9H4.44444ZM3.22222 6.08333C3.06482 6.08333 2.93287 6.02743 2.82639 5.91563C2.71991 5.80382 2.66667 5.66528 2.66667 5.5C2.66667 5.33472 2.71991 5.19618 2.82639 5.08437C2.93287 4.97257 3.06482 4.91667 3.22222 4.91667H8.77778C8.93519 4.91667 9.06713 4.97257 9.17361 5.08437C9.28009 5.19618 9.33333 5.33472 9.33333 5.5C9.33333 5.66528 9.28009 5.80382 9.17361 5.91563C9.06713 6.02743 8.93519 6.08333 8.77778 6.08333H3.22222ZM1.55556 3.16667C1.39815 3.16667 1.2662 3.11076 1.15972 2.99896C1.05324 2.88715 1 2.74861 1 2.58333C1 2.41806 1.05324 2.27951 1.15972 2.16771C1.2662 2.0559 1.39815 2 1.55556 2H10.4444C10.6019 2 10.7338 2.0559 10.8403 2.16771C10.9468 2.27951 11 2.41806 11 2.58333C11 2.74861 10.9468 2.88715 10.8403 2.99896C10.7338 3.11076 10.6019 3.16667 10.4444 3.16667H1.55556Z" fill="#1F1F1F"/>
<path fill-rule="evenodd" clip-rule="evenodd" d="M9.16667 8C8.98986 8 8.82029 8.07024 8.69526 8.19526C8.57024 8.32029 8.5 8.48986 8.5 8.66667V13.3333C8.5 13.5101 8.57024 13.6797 8.69526 13.8047C8.82029 13.9298 8.98986 14 9.16667 14H13.8333C14.0101 14 14.1797 13.9298 14.3047 13.8047C14.4298 13.6797 14.5 13.5101 14.5 13.3333V8.66667C14.5 8.48986 14.4298 8.32029 14.3047 8.19526C14.1797 8.07024 14.0101 8 13.8333 8H9.16667ZM9.16667 8.66667H13.8333V13.3333H9.16667V8.66667ZM13.15 10.265C13.1818 10.2343 13.2072 10.1975 13.2247 10.1568C13.2422 10.1161 13.2514 10.0724 13.2518 10.0281C13.2521 9.98387 13.2437 9.93998 13.2269 9.89902C13.2102 9.85805 13.1854 9.82083 13.1541 9.78953C13.1228 9.75824 13.0856 9.73349 13.0447 9.71673C13.0037 9.69997 12.9598 9.69153 12.9155 9.69192C12.8713 9.6923 12.8275 9.7015 12.7869 9.71897C12.7462 9.73644 12.7094 9.76183 12.6787 9.79367L11.0287 11.4437L10.3217 10.7367C10.2907 10.7057 10.254 10.6811 10.2135 10.6644C10.1731 10.6476 10.1297 10.6389 10.086 10.6389C9.99753 10.6389 9.91271 10.674 9.85017 10.7365C9.78762 10.799 9.75246 10.8838 9.75243 10.9722C9.7524 11.0606 9.7875 11.1455 9.85 11.208L10.7693 12.1273C10.8034 12.1614 10.8438 12.1884 10.8883 12.2069C10.9328 12.2253 10.9805 12.2348 11.0287 12.2348C11.0768 12.2348 11.1245 12.2253 11.169 12.2069C11.2135 12.1884 11.2539 12.1614 11.288 12.1273L13.15 10.265Z" fill="#1F1F1F"/>
</svg>
