<svg width="16" height="16" viewBox="0 0 16 16" fill="none" xmlns="http://www.w3.org/2000/svg">
<path d="M8.67157 7.99534L5.71941 5.20039C5.57974 5.06901 5.50673 4.90477 5.50038 4.7077C5.49403 4.51062 5.56704 4.34041 5.71941 4.19708C5.85908 4.06569 6.03685 4 6.2527 4C6.46856 4 6.64633 4.06569 6.786 4.19708L10.2905 7.49368C10.3667 7.56535 10.4206 7.64299 10.4524 7.7266C10.4841 7.81021 10.5 7.89979 10.5 7.99534C10.5 8.0909 10.4841 8.18048 10.4524 8.26409C10.4206 8.3477 10.3667 8.42533 10.2905 8.497L6.786 11.7936C6.64633 11.925 6.47174 11.9937 6.26223 11.9996C6.05272 12.0056 5.87178 11.9369 5.71941 11.7936C5.57974 11.6622 5.5099 11.495 5.5099 11.2919C5.5099 11.0889 5.57974 10.9217 5.71941 10.7903L8.67157 7.99534Z" fill="#1F1F1F"/>
</svg>
