<svg width="16" height="16" viewBox="0 0 16 16" fill="none" xmlns="http://www.w3.org/2000/svg">
<path d="M7.44444 11.5C7.28704 11.5 7.15509 11.4441 7.04861 11.3323C6.94213 11.2205 6.88889 11.0819 6.88889 10.9167C6.88889 10.7514 6.94213 10.6128 7.04861 10.501C7.15509 10.3892 7.28704 10.3333 7.44444 10.3333H8.55556C8.71296 10.3333 8.84491 10.3892 8.95139 10.501C9.05787 10.6128 9.11111 10.7514 9.11111 10.9167C9.11111 11.0819 9.05787 11.2205 8.95139 11.3323C8.84491 11.4441 8.71296 11.5 8.55556 11.5H7.44444ZM5.22222 8.58333C5.06481 8.58333 4.93287 8.52743 4.82639 8.41563C4.71991 8.30382 4.66667 8.16528 4.66667 8C4.66667 7.83472 4.71991 7.69618 4.82639 7.58437C4.93287 7.47257 5.06481 7.41667 5.22222 7.41667H10.7778C10.9352 7.41667 11.0671 7.47257 11.1736 7.58437C11.2801 7.69618 11.3333 7.83472 11.3333 8C11.3333 8.16528 11.2801 8.30382 11.1736 8.41563C11.0671 8.52743 10.9352 8.58333 10.7778 8.58333H5.22222ZM3.55556 5.66667C3.39815 5.66667 3.2662 5.61076 3.15972 5.49896C3.05324 5.38715 3 5.24861 3 5.08333C3 4.91806 3.05324 4.77951 3.15972 4.66771C3.2662 4.5559 3.39815 4.5 3.55556 4.5H12.4444C12.6019 4.5 12.7338 4.5559 12.8403 4.66771C12.9468 4.77951 13 4.91806 13 5.08333C13 5.24861 12.9468 5.38715 12.8403 5.49896C12.7338 5.61076 12.6019 5.66667 12.4444 5.66667H3.55556Z" fill="#1F1F1F"/>
</svg>
