<svg width="16" height="16" viewBox="0 0 16 16" fill="none" xmlns="http://www.w3.org/2000/svg">
<path d="M3.25928 3.99902C3.40075 3.99911 3.51901 4.04784 3.61475 4.14355C3.71058 4.23939 3.75928 4.35833 3.75928 4.5V11.5C3.75917 11.6415 3.71047 11.7597 3.61475 11.8555C3.51901 11.9512 3.40075 11.9999 3.25928 12C3.11761 12 2.99867 11.9513 2.90283 11.8555C2.80715 11.7598 2.75939 11.6414 2.75928 11.5V4.5C2.75928 4.35836 2.80704 4.23938 2.90283 4.14355C2.99867 4.04772 3.11761 3.99902 3.25928 3.99902ZM12.7407 3.99902C12.8824 3.99902 13.0013 4.04772 13.0972 4.14355C13.1929 4.23936 13.2407 4.35842 13.2407 4.5V11.5C13.2406 11.6414 13.1928 11.7598 13.0972 11.8555C13.0013 11.9513 12.8824 12 12.7407 12C12.5991 12 12.4801 11.9513 12.3843 11.8555C12.2888 11.7598 12.2408 11.6413 12.2407 11.5V4.5C12.2407 4.35848 12.2886 4.23933 12.3843 4.14355C12.4801 4.04775 12.5991 3.99905 12.7407 3.99902ZM8.14404 5C8.28638 5 8.40596 5.04805 8.50146 5.14355C8.59671 5.23899 8.64404 5.35786 8.64404 5.5V7.15918L10.064 6.31738C10.1818 6.2484 10.3073 6.23217 10.4409 6.26855C10.5749 6.30505 10.6772 6.382 10.7466 6.5C10.8157 6.61793 10.8319 6.74402 10.7954 6.87793C10.759 7.01161 10.6817 7.11329 10.564 7.18262L9.14404 8L10.5688 8.81738C10.6868 8.88672 10.7638 8.98824 10.7983 9.12207C10.8329 9.25596 10.8157 9.38208 10.7466 9.5C10.6772 9.62183 10.5749 9.69878 10.4409 9.73145C10.3073 9.76401 10.1818 9.74577 10.064 9.67676L8.64404 8.84082V10.5C8.64404 10.6421 8.59671 10.761 8.50146 10.8564C8.40596 10.9519 8.28638 11 8.14404 11C8.0018 11 7.88305 10.9519 7.7876 10.8564C7.69217 10.761 7.64404 10.6423 7.64404 10.5V8.84082L6.2251 9.68262C6.1071 9.75178 5.981 9.76795 5.84717 9.73145C5.71328 9.69494 5.61179 9.6179 5.54248 9.5C5.47331 9.382 5.45715 9.25607 5.49365 9.12207C5.53016 8.98825 5.60711 8.88671 5.7251 8.81738L7.14404 8L5.71924 7.18262C5.60128 7.11328 5.52522 7.01174 5.49072 6.87793C5.45606 6.74393 5.47332 6.618 5.54248 6.5C5.61179 6.37827 5.71328 6.30123 5.84717 6.26855C5.981 6.23589 6.1071 6.25408 6.2251 6.32324L7.64404 7.15918V5.5C7.64404 5.35772 7.69217 5.23904 7.7876 5.14355C7.88305 5.0481 8.0018 5.00005 8.14404 5Z" fill="#1F1F1F"/>
</svg>
