<svg width="16" height="16" viewBox="0 0 16 16" fill="none" xmlns="http://www.w3.org/2000/svg">
<path d="M5.24867 9.61719C5.09127 9.61719 4.95932 9.56129 4.85284 9.44948C4.74636 9.33767 4.69312 9.19913 4.69312 9.03385C4.69312 8.86858 4.74636 8.73003 4.85284 8.61823C4.95932 8.50642 5.09127 8.45052 5.24867 8.45052H7.19312C7.35053 8.45052 7.48247 8.50642 7.58895 8.61823C7.69543 8.73003 7.74867 8.86858 7.74867 9.03385C7.74867 9.19913 7.69543 9.33767 7.58895 9.44948C7.48247 9.56129 7.35053 9.61719 7.19312 9.61719H5.24867ZM4.02645 6.70052C3.86904 6.70052 3.7371 6.64462 3.63062 6.53281C3.52414 6.42101 3.4709 6.28247 3.4709 6.11719C3.4709 5.95191 3.52414 5.81337 3.63062 5.70156C3.7371 5.58976 3.86904 5.53385 4.02645 5.53385H9.58201C9.73942 5.53385 9.87136 5.58976 9.97784 5.70156C10.0843 5.81337 10.1376 5.95191 10.1376 6.11719C10.1376 6.28247 10.0843 6.42101 9.97784 6.53281C9.87136 6.64462 9.73942 6.70052 9.58201 6.70052H4.02645ZM2.35979 3.78385C2.20238 3.78385 2.07043 3.72795 1.96395 3.61615C1.85747 3.50434 1.80423 3.3658 1.80423 3.20052C1.80423 3.03524 1.85747 2.8967 1.96395 2.7849C2.07043 2.67309 2.20238 2.61719 2.35979 2.61719H11.2487C11.4061 2.61719 11.538 2.67309 11.6445 2.7849C11.751 2.8967 11.8042 3.03524 11.8042 3.20052C11.8042 3.3658 11.751 3.50434 11.6445 3.61615C11.538 3.72795 11.4061 3.78385 11.2487 3.78385H2.35979Z" fill="#1F1F1F"/>
<path d="M9.86374 8.54688C9.72834 8.54688 9.61034 8.59728 9.51022 8.69727C9.4101 8.79739 9.35988 8.91533 9.35983 9.05078C9.35983 9.18631 9.41005 9.30412 9.51022 9.4043L11.0708 10.9648L9.51022 12.5254C9.41005 12.6256 9.35983 12.7444 9.35983 12.8799C9.35995 13.0152 9.41017 13.1333 9.51022 13.2334C9.61031 13.3333 9.7284 13.3828 9.86374 13.3828C9.99909 13.3827 10.1172 13.3334 10.2173 13.2334L11.7778 11.6719L13.3383 13.2334C13.4385 13.3334 13.5565 13.3828 13.6919 13.3828C13.8273 13.3828 13.9453 13.3334 14.0454 13.2334C14.1454 13.1333 14.1957 13.0152 14.1958 12.8799C14.1958 12.7444 14.1456 12.6256 14.0454 12.5254L12.4858 10.9648L14.0454 9.4043C14.1455 9.30415 14.1958 9.18625 14.1958 9.05078C14.1957 8.91534 14.1455 8.79739 14.0454 8.69727C13.9452 8.59715 13.8273 8.54689 13.6919 8.54688C13.5564 8.54687 13.4385 8.59718 13.3383 8.69727L11.7778 10.2578L10.2173 8.69727C10.1172 8.59718 9.99911 8.54697 9.86374 8.54688Z" fill="#1F1F1F"/>
</svg>
