<svg width="16" height="16" viewBox="0 0 16 16" fill="none" xmlns="http://www.w3.org/2000/svg">
<path d="M7.32843 7.99534L10.2806 5.20039C10.4203 5.06901 10.4933 4.90477 10.4996 4.7077C10.506 4.51062 10.433 4.34041 10.2806 4.19708C10.1409 4.06569 9.96315 4 9.7473 4C9.53144 4 9.35367 4.06569 9.214 4.19708L5.70951 7.49368C5.63332 7.56535 5.57936 7.64299 5.54762 7.7266C5.51587 7.81021 5.5 7.89979 5.5 7.99534C5.5 8.0909 5.51587 8.18048 5.54762 8.26409C5.57936 8.3477 5.63332 8.42533 5.70951 8.497L9.214 11.7936C9.35367 11.925 9.52826 11.9937 9.73777 11.9996C9.94728 12.0056 10.1282 11.9369 10.2806 11.7936C10.4203 11.6622 10.4901 11.495 10.4901 11.2919C10.4901 11.0889 10.4203 10.9217 10.2806 10.7903L7.32843 7.99534Z" fill="#1F1F1F"/>
</svg>
