<svg width="16" height="16" viewBox="0 0 16 16" fill="none" xmlns="http://www.w3.org/2000/svg">
<path d="M11.9987 12.3579L3.15605 4.31711C3.05202 4.22237 3 4.10987 3 3.97961C3 3.84934 3.05202 3.73684 3.15605 3.64211C3.26008 3.54737 3.38362 3.5 3.52666 3.5C3.6697 3.5 3.79324 3.54737 3.89727 3.64211L12.7399 11.6947C12.844 11.7895 12.896 11.9 12.896 12.0263C12.896 12.1526 12.844 12.2632 12.7399 12.3579C12.6359 12.4526 12.5124 12.5 12.3693 12.5C12.2263 12.5 12.1027 12.4526 11.9987 12.3579ZM10.5293 8.14211C10.3819 8.14211 10.2562 8.09671 10.1521 8.00592C10.0481 7.91513 9.9961 7.80263 9.9961 7.66842C9.9961 7.54211 10.0459 7.43158 10.1456 7.33684C10.2453 7.24211 10.3732 7.19474 10.5293 7.19474H10.9194C11.0668 7.19474 11.1903 7.24013 11.29 7.33092C11.3897 7.42171 11.4395 7.53421 11.4395 7.66842C11.4395 7.80263 11.3897 7.91513 11.29 8.00592C11.1903 8.09671 11.0668 8.14211 10.9194 8.14211H10.5293ZM7.92848 5.77368C7.7811 5.77368 7.6554 5.72829 7.55137 5.6375C7.44733 5.54671 7.39532 5.43421 7.39532 5.3C7.39532 5.17368 7.44517 5.06316 7.54486 4.96842C7.64456 4.87368 7.77243 4.82632 7.92848 4.82632H12.4798C12.6272 4.82632 12.7508 4.87171 12.8505 4.9625C12.9502 5.05329 13 5.16579 13 5.3C13 5.43421 12.9502 5.54671 12.8505 5.6375C12.7508 5.72829 12.6272 5.77368 12.4798 5.77368H7.92848ZM7.79844 10.5105C7.65106 10.5105 7.52752 10.4651 7.42783 10.3743C7.32813 10.2836 7.27828 10.1711 7.27828 10.0368C7.27828 9.90263 7.32813 9.79013 7.42783 9.69934C7.52752 9.60855 7.65106 9.56316 7.79844 9.56316H8.83875C8.98613 9.56316 9.10967 9.60855 9.20936 9.69934C9.30906 9.79013 9.35891 9.90263 9.35891 10.0368C9.35891 10.1711 9.30906 10.2836 9.20936 10.3743C9.10967 10.4651 8.98613 10.5105 8.83875 10.5105H7.79844ZM5.71782 8.14211C5.57044 8.14211 5.4469 8.09671 5.3472 8.00592C5.24751 7.91513 5.19766 7.80263 5.19766 7.66842C5.19766 7.53421 5.24751 7.42171 5.3472 7.33092C5.4469 7.24013 5.57044 7.19474 5.71782 7.19474H7.35631V8.14211H5.71782ZM4.15735 5.77368C4.00997 5.77368 3.88643 5.72829 3.78674 5.6375C3.68704 5.54671 3.63719 5.43421 3.63719 5.3C3.63719 5.16579 3.68704 5.05329 3.78674 4.9625C3.88643 4.87171 4.00997 4.82632 4.15735 4.82632H4.75553V5.77368H4.15735Z" fill="#1F1F1F"/>
</svg>
