<svg width="16" height="16" viewBox="0 0 16 16" fill="none" xmlns="http://www.w3.org/2000/svg">
<path d="M2 8.00714C2 7.12214 2.14398 6.26984 2.43194 5.45024C2.7199 4.63063 3.14098 3.88501 3.69518 3.21336C3.80197 3.08527 3.93183 3.01478 4.08477 3.00188C4.23771 2.98898 4.37132 3.04257 4.4856 3.16266C4.59975 3.28275 4.6564 3.42438 4.65554 3.58756C4.65456 3.75073 4.60073 3.90029 4.49407 4.03625C4.04175 4.59297 3.69708 5.20864 3.46006 5.88326C3.22316 6.558 3.10471 7.26351 3.10471 7.99979C3.10471 8.73606 3.22813 9.4428 3.47497 10.12C3.72194 10.7972 4.06538 11.4141 4.5053 11.9707C4.61209 12.1066 4.66708 12.2543 4.67027 12.4136C4.67358 12.5727 4.61816 12.7124 4.50401 12.8325C4.38973 12.9526 4.25496 13.0081 4.09969 12.9991C3.94429 12.9902 3.81326 12.9217 3.70659 12.7938C3.16467 12.1171 2.74476 11.3702 2.44686 10.553C2.14895 9.73599 2 8.88737 2 8.00714ZM14 8.00714C14 8.88737 13.856 9.73851 13.5681 10.5606C13.2801 11.3826 12.859 12.127 12.3046 12.7938C12.198 12.9217 12.0682 12.9902 11.9152 12.9991C11.7623 13.0081 11.6287 12.9526 11.5144 12.8325C11.4001 12.7124 11.3435 12.5727 11.3445 12.4136C11.3454 12.2543 11.3993 12.1066 11.5059 11.9707C11.9581 11.4141 12.3027 10.7972 12.5398 10.12C12.7768 9.4428 12.8953 8.73606 12.8953 7.99979C12.8953 7.26351 12.7718 6.558 12.5248 5.88326C12.278 5.20864 11.9346 4.59297 11.4945 4.03625C11.3878 3.90029 11.3359 3.75073 11.3388 3.58756C11.3416 3.42438 11.4001 3.28275 11.5144 3.16266C11.6287 3.04257 11.7604 2.98898 11.9095 3.00188C12.0587 3.01478 12.1866 3.08527 12.2934 3.21336C12.8353 3.89004 13.2552 4.63689 13.5531 5.45391C13.851 6.27106 14 7.12214 14 8.00714Z" fill="#1F1F1F"/>
<path d="M7.99997 11C7.85764 11 7.73872 10.9522 7.64322 10.8567C7.54772 10.7612 7.49997 10.6423 7.49997 10.5V8.8405L6.08072 9.68275C5.96272 9.75192 5.8368 9.76825 5.70297 9.73175C5.56897 9.69525 5.4673 9.618 5.39797 9.5C5.3288 9.382 5.31247 9.256 5.34897 9.122C5.38547 8.98817 5.46272 8.88658 5.58072 8.81725L6.99997 8L5.57497 7.18275C5.45697 7.11342 5.38072 7.01183 5.34622 6.878C5.31155 6.744 5.3288 6.618 5.39797 6.5C5.4673 6.37817 5.56897 6.30092 5.70297 6.26825C5.8368 6.23558 5.96272 6.25383 6.08072 6.323L7.49997 7.1595V5.5C7.49997 5.35767 7.54772 5.23875 7.64322 5.14325C7.73872 5.04775 7.85764 5 7.99997 5C8.1423 5 8.26122 5.04775 8.35672 5.14325C8.45222 5.23875 8.49997 5.35767 8.49997 5.5V7.1595L9.91922 6.31725C10.0372 6.24808 10.1631 6.23175 10.297 6.26825C10.431 6.30475 10.5326 6.382 10.602 6.5C10.6711 6.618 10.6875 6.744 10.651 6.878C10.6145 7.01183 10.5372 7.11342 10.4192 7.18275L8.99997 8L10.425 8.81725C10.543 8.88658 10.6192 8.98817 10.6537 9.122C10.6884 9.256 10.6711 9.382 10.602 9.5C10.5326 9.62183 10.431 9.69908 10.297 9.73175C10.1631 9.76442 10.0372 9.74617 9.91922 9.677L8.49997 8.8405V10.5C8.49997 10.6423 8.45222 10.7612 8.35672 10.8567C8.26122 10.9522 8.1423 11 7.99997 11Z" fill="#1F1F1F"/>
</svg>
