<svg width="16" height="16" viewBox="0 0 16 16" fill="none" xmlns="http://www.w3.org/2000/svg">
<path d="M10.3107 4.99993C10.4529 4.99993 10.5717 5.04815 10.6671 5.14349C10.7625 5.23889 10.8106 5.35779 10.8107 5.49993V7.16009L12.2296 6.31731C12.3476 6.24819 12.4738 6.23206 12.6076 6.26849C12.7415 6.30497 12.8439 6.382 12.9132 6.49993C12.9824 6.61793 12.9986 6.74484 12.9621 6.87884C12.9255 7.01249 12.8475 7.11426 12.7296 7.18353L11.3107 7.99993L12.7355 8.81731C12.8534 8.88661 12.9305 8.98828 12.965 9.122C12.9996 9.2558 12.9822 9.38208 12.9132 9.49993C12.8439 9.62176 12.7416 9.69969 12.6076 9.73235C12.4738 9.76494 12.3476 9.74679 12.2296 9.67767L10.8107 8.84075V10.4999C10.8107 10.6423 10.7626 10.7619 10.6671 10.8574C10.5717 10.9526 10.4529 10.9999 10.3107 10.9999C10.1685 10.9999 10.0497 10.9527 9.95425 10.8574C9.85875 10.7619 9.8107 10.6423 9.8107 10.4999V8.84075L8.39175 9.68353C8.27379 9.75267 8.14761 9.76881 8.01382 9.73235C7.87982 9.69585 7.77847 9.61793 7.70914 9.49993C7.64005 9.38198 7.62285 9.25594 7.65933 9.122C7.69586 8.98828 7.77382 8.88661 7.89175 8.81731L9.3107 7.99993L7.88589 7.18353C7.76805 7.11428 7.69194 7.01241 7.65738 6.87884C7.62271 6.74484 7.63997 6.61793 7.70914 6.49993C7.77846 6.37838 7.88 6.30111 8.01382 6.26849C8.14763 6.23584 8.27378 6.25402 8.39175 6.32317L9.8107 7.16009V5.49993C9.8108 5.35779 9.85885 5.23889 9.95425 5.14349C10.0497 5.04812 10.1685 4.99995 10.3107 4.99993ZM3.17789 5.02435C3.28503 4.97732 3.38352 5.00061 3.47281 5.09466L5.8566 7.6054C5.96363 7.71814 6.01762 7.84965 6.01773 7.99993C6.01773 8.1504 5.96374 8.28259 5.8566 8.39544L3.47281 10.9062C3.38352 11.0002 3.28503 11.0235 3.17789 10.9765C3.07097 10.9294 3.01775 10.8404 3.01773 10.7089V5.29192C3.01773 5.1604 3.07096 5.07141 3.17789 5.02435Z" fill="#1F1F1F"/>
</svg>
