<svg width="16" height="16" viewBox="0 0 16 16" fill="none" xmlns="http://www.w3.org/2000/svg">
<path d="M9.03125 9.5C8.90104 9.5 8.79036 9.45625 8.69922 9.36875C8.60807 9.28125 8.5625 9.175 8.5625 9.05C8.5625 8.925 8.60807 8.81875 8.69922 8.73125C8.79036 8.64375 8.90104 8.6 9.03125 8.6H12.0938C12.224 8.6 12.3346 8.64375 12.4258 8.73125C12.5169 8.81875 12.5625 8.925 12.5625 9.05C12.5625 9.175 12.5169 9.28125 12.4258 9.36875C12.3346 9.45625 12.224 9.5 12.0938 9.5H9.03125ZM9.03125 7.4C8.90104 7.4 8.79036 7.35625 8.69922 7.26875C8.60807 7.18125 8.5625 7.075 8.5625 6.95C8.5625 6.825 8.60807 6.71875 8.69922 6.63125C8.79036 6.54375 8.90104 6.5 9.03125 6.5H12.0938C12.224 6.5 12.3346 6.54375 12.4258 6.63125C12.5169 6.71875 12.5625 6.825 12.5625 6.95C12.5625 7.075 12.5169 7.18125 12.4258 7.26875C12.3346 7.35625 12.224 7.4 12.0938 7.4H9.03125Z" fill="#1F1F1F"/>
<path d="M5.97475 7.99651L3.61303 5.9003C3.50129 5.80176 3.44288 5.67858 3.4378 5.53077C3.43273 5.38296 3.49113 5.25531 3.61303 5.14781C3.72477 5.04927 3.86698 5 4.03966 5C4.21235 5 4.35456 5.04927 4.4663 5.14781L7.26989 7.62026C7.33084 7.67401 7.37401 7.73224 7.39941 7.79495C7.4248 7.85765 7.4375 7.92484 7.4375 7.99651C7.4375 8.06817 7.4248 8.13536 7.39941 8.19807C7.37401 8.26077 7.33084 8.319 7.26989 8.37275L4.4663 10.8452C4.35456 10.9437 4.21489 10.9953 4.04728 10.9997C3.87968 11.0042 3.73492 10.9527 3.61303 10.8452C3.50129 10.7467 3.44542 10.6212 3.44542 10.469C3.44542 10.3167 3.50129 10.1913 3.61303 10.0927L5.97475 7.99651Z" fill="#1F1F1F"/>
</svg>
