<svg width="16" height="16" viewBox="0 0 16 16" fill="none" xmlns="http://www.w3.org/2000/svg">
<path d="M5.66516 4.99989C5.80733 4.99989 5.92616 5.04817 6.02161 5.14345C6.117 5.23884 6.16506 5.35777 6.16516 5.49989V7.16005L7.58411 6.31728C7.70201 6.24817 7.82832 6.23206 7.96204 6.26845C8.09596 6.30493 8.19837 6.382 8.2677 6.49989C8.33687 6.61789 8.35303 6.7448 8.31653 6.8788C8.27999 7.01246 8.202 7.11421 8.08411 7.18349L6.66516 7.99989L8.08997 8.81728C8.20788 8.88656 8.28492 8.98827 8.31946 9.12196C8.35407 9.25577 8.33662 9.38204 8.2677 9.49989C8.19837 9.62173 8.09604 9.69965 7.96204 9.73232C7.82833 9.76487 7.70201 9.74674 7.58411 9.67763L6.16516 8.84071V10.4999C6.16516 10.6422 6.11711 10.7618 6.02161 10.8573C5.92616 10.9526 5.80733 10.9999 5.66516 10.9999C5.52299 10.9999 5.40415 10.9527 5.30872 10.8573C5.21322 10.7618 5.16516 10.6422 5.16516 10.4999V8.84071L3.74622 9.68349C3.62824 9.75262 3.50209 9.76881 3.36829 9.73232C3.23429 9.69582 3.13293 9.61789 3.0636 9.49989C2.99455 9.38196 2.9783 9.25587 3.01477 9.12196C3.05133 8.98837 3.12836 8.88653 3.24622 8.81728L4.66516 7.99989L3.24036 7.18349C3.12249 7.11423 3.0464 7.0124 3.01184 6.8788C2.97717 6.7448 2.99443 6.61789 3.0636 6.49989C3.13292 6.37833 3.23446 6.30107 3.36829 6.26845C3.50212 6.23578 3.62822 6.25397 3.74622 6.32314L5.16516 7.16005V5.49989C5.16527 5.35777 5.21332 5.23884 5.30872 5.14345C5.40415 5.04809 5.52298 4.99993 5.66516 4.99989ZM12.8458 5.02431C12.9528 5.07137 13.006 5.16035 13.006 5.29189V10.7089C13.006 10.8404 12.9528 10.9294 12.8458 10.9765C12.7387 11.0235 12.6402 11.0002 12.5509 10.9061L10.1671 8.3954C10.06 8.28255 10.006 8.15036 10.006 7.99989C10.0061 7.84961 10.0601 7.7181 10.1671 7.60536L12.5509 5.09462C12.6402 5.00058 12.7387 4.97729 12.8458 5.02431Z" fill="#1F1F1F"/>
</svg>
