<svg width="16" height="16" viewBox="0 0 16 16" fill="none" xmlns="http://www.w3.org/2000/svg">
<path d="M11.7873 7.99651L9.42553 5.9003C9.31379 5.80176 9.25538 5.67858 9.2503 5.53077C9.24523 5.38296 9.30363 5.25531 9.42553 5.14781C9.53727 5.04927 9.67948 5 9.85216 5C10.0248 5 10.1671 5.04927 10.2788 5.14781L13.0824 7.62026C13.1433 7.67401 13.1865 7.73224 13.2119 7.79495C13.2373 7.85765 13.25 7.92484 13.25 7.99651C13.25 8.06817 13.2373 8.13536 13.2119 8.19807C13.1865 8.26077 13.1433 8.319 13.0824 8.37275L10.2788 10.8452C10.1671 10.9437 10.0274 10.9953 9.85978 10.9997C9.69218 11.0042 9.54742 10.9527 9.42553 10.8452C9.31379 10.7467 9.25792 10.6212 9.25792 10.469C9.25792 10.3167 9.31379 10.1913 9.42553 10.0927L11.7873 7.99651Z" fill="#1F1F1F"/>
<path d="M4.21275 7.99651L6.57447 5.9003C6.68621 5.80176 6.74462 5.67858 6.7497 5.53077C6.75477 5.38296 6.69637 5.25531 6.57447 5.14781C6.46273 5.04927 6.32052 5 6.14784 5C5.97515 5 5.83294 5.04927 5.7212 5.14781L2.91761 7.62026C2.85666 7.67401 2.81349 7.73224 2.78809 7.79495C2.7627 7.85765 2.75 7.92484 2.75 7.99651C2.75 8.06817 2.7627 8.13536 2.78809 8.19807C2.81349 8.26077 2.85666 8.319 2.91761 8.37275L5.7212 10.8452C5.83294 10.9437 5.97261 10.9953 6.14022 10.9997C6.30782 11.0042 6.45258 10.9527 6.57447 10.8452C6.68621 10.7467 6.74208 10.6212 6.74208 10.469C6.74208 10.3167 6.68621 10.1913 6.57447 10.0927L4.21275 7.99651Z" fill="#1F1F1F"/>
</svg>
