<svg width="16" height="16" viewBox="0 0 16 16" fill="none" xmlns="http://www.w3.org/2000/svg">
<path d="M5.29184 5C5.14966 5 5.03084 5.04729 4.93539 5.14258C4.83989 5.23808 4.79184 5.35767 4.79184 5.5V7.15918L3.37289 6.31641C3.25497 6.24728 3.1287 6.23117 2.99496 6.26758C2.86096 6.30408 2.75863 6.382 2.6893 6.5C2.62039 6.61785 2.60402 6.74412 2.64047 6.87793C2.677 7.01164 2.75497 7.11333 2.87289 7.18262L4.29184 8L2.86703 8.81641C2.74903 8.88574 2.67204 8.98824 2.63754 9.12207C2.60307 9.25586 2.62023 9.38217 2.6893 9.5C2.75863 9.62177 2.86101 9.69879 2.99496 9.73145C3.12872 9.76404 3.25496 9.74589 3.37289 9.67676L4.79184 8.83984V10.5C4.79193 10.6421 4.83999 10.761 4.93539 10.8564C5.03085 10.9518 5.14963 11 5.29184 11C5.43405 11 5.55283 10.9518 5.64828 10.8564C5.74369 10.761 5.79175 10.6421 5.79184 10.5V8.83984L7.21078 9.68262C7.32876 9.75177 7.45491 9.76792 7.58871 9.73145C7.72254 9.69499 7.82408 9.61774 7.8934 9.5C7.96247 9.38217 7.97951 9.25586 7.94321 9.12207C7.90671 8.98824 7.82878 8.88574 7.71078 8.81641L6.29184 8L7.71664 7.18262C7.83452 7.11335 7.91061 7.01156 7.94516 6.87793C7.97981 6.74399 7.96249 6.61796 7.8934 6.5C7.82407 6.37817 7.72271 6.30024 7.58871 6.26758C7.45492 6.23495 7.32875 6.25312 7.21078 6.32227L5.79184 7.15918V5.5C5.79184 5.35767 5.74378 5.23808 5.64828 5.14258C5.55284 5.04726 5.43402 5.00002 5.29184 5ZM9.87973 7.5C9.73814 7.50004 9.61908 7.54776 9.52328 7.64355C9.42753 7.73937 9.37973 7.85839 9.37973 8C9.37974 8.14161 9.4275 8.26063 9.52328 8.35645C9.61908 8.45224 9.73814 8.49996 9.87973 8.5H12.8797C13.0213 8.5 13.1404 8.4522 13.2362 8.35645C13.332 8.26063 13.3797 8.14164 13.3797 8C13.3797 7.85833 13.332 7.73939 13.2362 7.64355C13.1404 7.54776 13.0214 7.5 12.8797 7.5H9.87973Z" fill="#1F1F1F"/>
</svg>
