<svg width="16" height="16" viewBox="0 0 16 16" fill="none" xmlns="http://www.w3.org/2000/svg">
<path d="M9.03125 9.5C8.90104 9.5 8.79036 9.45625 8.69922 9.36875C8.60807 9.28125 8.5625 9.175 8.5625 9.05C8.5625 8.925 8.60807 8.81875 8.69922 8.73125C8.79036 8.64375 8.90104 8.6 9.03125 8.6H12.0938C12.224 8.6 12.3346 8.64375 12.4258 8.73125C12.5169 8.81875 12.5625 8.925 12.5625 9.05C12.5625 9.175 12.5169 9.28125 12.4258 9.36875C12.3346 9.45625 12.224 9.5 12.0938 9.5H9.03125ZM9.03125 7.4C8.90104 7.4 8.79036 7.35625 8.69922 7.26875C8.60807 7.18125 8.5625 7.075 8.5625 6.95C8.5625 6.825 8.60807 6.71875 8.69922 6.63125C8.79036 6.54375 8.90104 6.5 9.03125 6.5H12.0938C12.224 6.5 12.3346 6.54375 12.4258 6.63125C12.5169 6.71875 12.5625 6.825 12.5625 6.95C12.5625 7.075 12.5169 7.18125 12.4258 7.26875C12.3346 7.35625 12.224 7.4 12.0938 7.4H9.03125Z" fill="#1F1F1F"/>
<path d="M4.90025 7.99651L7.26197 5.9003C7.37371 5.80176 7.43212 5.67858 7.4372 5.53077C7.44227 5.38296 7.38387 5.25531 7.26197 5.14781C7.15023 5.04927 7.00802 5 6.83534 5C6.66265 5 6.52044 5.04927 6.4087 5.14781L3.60511 7.62026C3.54416 7.67401 3.50099 7.73224 3.47559 7.79495C3.4502 7.85765 3.4375 7.92484 3.4375 7.99651C3.4375 8.06817 3.4502 8.13536 3.47559 8.19807C3.50099 8.26077 3.54416 8.319 3.60511 8.37275L6.4087 10.8452C6.52044 10.9437 6.66011 10.9953 6.82772 10.9997C6.99532 11.0042 7.14008 10.9527 7.26197 10.8452C7.37371 10.7467 7.42958 10.6212 7.42958 10.469C7.42958 10.3167 7.37371 10.1913 7.26197 10.0927L4.90025 7.99651Z" fill="#1F1F1F"/>
</svg>
