<svg width="16" height="16" viewBox="0 0 16 16" fill="none" xmlns="http://www.w3.org/2000/svg">
<path d="M10.7082 5C10.8503 5 10.9692 5.04729 11.0646 5.14258C11.1601 5.23808 11.2082 5.35767 11.2082 5.5V7.15918L12.6271 6.31641C12.745 6.24728 12.8713 6.23117 13.005 6.26758C13.139 6.30408 13.2414 6.382 13.3107 6.5C13.3796 6.61785 13.396 6.74412 13.3595 6.87793C13.323 7.01164 13.245 7.11333 13.1271 7.18262L11.7082 8L13.133 8.81641C13.251 8.88574 13.328 8.98824 13.3625 9.12207C13.3969 9.25586 13.3798 9.38217 13.3107 9.5C13.2414 9.62177 13.139 9.69879 13.005 9.73145C12.8713 9.76404 12.745 9.74589 12.6271 9.67676L11.2082 8.83984V10.5C11.2081 10.6421 11.16 10.761 11.0646 10.8564C10.9691 10.9518 10.8504 11 10.7082 11C10.5659 11 10.4472 10.9518 10.3517 10.8564C10.2563 10.761 10.2083 10.6421 10.2082 10.5V8.83984L8.78922 9.68262C8.67124 9.75177 8.54509 9.76792 8.41129 9.73145C8.27746 9.69499 8.17592 9.61774 8.1066 9.5C8.03753 9.38217 8.02049 9.25586 8.05679 9.12207C8.09329 8.98824 8.17122 8.88574 8.28922 8.81641L9.70816 8L8.28336 7.18262C8.16548 7.11335 8.08939 7.01156 8.05484 6.87793C8.02019 6.74399 8.03751 6.61796 8.1066 6.5C8.17593 6.37817 8.27729 6.30024 8.41129 6.26758C8.54508 6.23495 8.67125 6.25312 8.78922 6.32227L10.2082 7.15918V5.5C10.2082 5.35767 10.2562 5.23808 10.3517 5.14258C10.4472 5.04726 10.566 5.00002 10.7082 5ZM6.12027 7.5C6.26186 7.50004 6.38092 7.54776 6.47672 7.64355C6.57247 7.73937 6.62027 7.85839 6.62027 8C6.62026 8.14161 6.5725 8.26063 6.47672 8.35645C6.38092 8.45224 6.26186 8.49996 6.12027 8.5H3.12027C2.97866 8.5 2.85964 8.4522 2.76382 8.35645C2.668 8.26063 2.62028 8.14164 2.62027 8C2.62027 7.85833 2.66799 7.73939 2.76382 7.64355C2.85965 7.54776 2.97863 7.5 3.12027 7.5H6.12027Z" fill="#1F1F1F"/>
</svg>
