<svg width="16" height="16" viewBox="0 0 16 16" fill="none" xmlns="http://www.w3.org/2000/svg">
<path d="M4.44444 9C4.28704 9 4.15509 8.9441 4.04861 8.83229C3.94213 8.72049 3.88889 8.58194 3.88889 8.41667C3.88889 8.25139 3.94213 8.11285 4.04861 8.00104C4.15509 7.88924 4.28704 7.83333 4.44444 7.83333H6.38889C6.5463 7.83333 6.67824 7.88924 6.78472 8.00104C6.8912 8.11285 6.94444 8.25139 6.94444 8.41667C6.94444 8.58194 6.8912 8.72049 6.78472 8.83229C6.67824 8.9441 6.5463 9 6.38889 9H4.44444ZM3.22222 6.08333C3.06482 6.08333 2.93287 6.02743 2.82639 5.91563C2.71991 5.80382 2.66667 5.66528 2.66667 5.5C2.66667 5.33472 2.71991 5.19618 2.82639 5.08437C2.93287 4.97257 3.06482 4.91667 3.22222 4.91667H8.77778C8.93519 4.91667 9.06713 4.97257 9.17361 5.08437C9.28009 5.19618 9.33333 5.33472 9.33333 5.5C9.33333 5.66528 9.28009 5.80382 9.17361 5.91563C9.06713 6.02743 8.93519 6.08333 8.77778 6.08333H3.22222ZM1.55556 3.16667C1.39815 3.16667 1.2662 3.11076 1.15972 2.99896C1.05324 2.88715 1 2.74861 1 2.58333C1 2.41806 1.05324 2.27951 1.15972 2.16771C1.2662 2.0559 1.39815 2 1.55556 2H10.4444C10.6019 2 10.7338 2.0559 10.8403 2.16771C10.9468 2.27951 11 2.41806 11 2.58333C11 2.74861 10.9468 2.88715 10.8403 2.99896C10.7338 3.11076 10.6019 3.16667 10.4444 3.16667H1.55556Z" fill="#1F1F1F"/>
<path fill-rule="evenodd" clip-rule="evenodd" d="M9.16667 8C8.98986 8 8.82029 8.07024 8.69526 8.19526C8.57024 8.32029 8.5 8.48986 8.5 8.66667V13.3333C8.5 13.5101 8.57024 13.6797 8.69526 13.8047C8.82029 13.9298 8.98986 14 9.16667 14H13.8333C14.0101 14 14.1797 13.9298 14.3047 13.8047C14.4298 13.6797 14.5 13.5101 14.5 13.3333V8.66667C14.5 8.48986 14.4298 8.32029 14.3047 8.19526C14.1797 8.07024 14.0101 8 13.8333 8H9.16667ZM9.16667 8.66667H13.8333V13.3333H9.16667V8.66667Z" fill="#1F1F1F"/>
</svg>
