<svg width="16" height="16" viewBox="0 0 16 16" fill="none" xmlns="http://www.w3.org/2000/svg">
<path d="M3.25928 4C3.40061 4.00008 3.51906 4.04804 3.61475 4.14355C3.71056 4.23937 3.75926 4.35837 3.75928 4.5V11.5C3.75928 11.6417 3.71058 11.7606 3.61475 11.8564C3.51904 11.952 3.40065 11.9999 3.25928 12C3.11768 12 2.99864 11.9522 2.90283 11.8564C2.807 11.7606 2.75928 11.6417 2.75928 11.5V4.5C2.7593 4.35837 2.80702 4.23937 2.90283 4.14355C2.99863 4.04787 3.11772 4 3.25928 4ZM12.7407 4C12.8823 4 13.0014 4.04779 13.0972 4.14355C13.193 4.23937 13.2407 4.35837 13.2407 4.5V11.5C13.2407 11.6417 13.193 11.7606 13.0972 11.8564C13.0013 11.9523 12.8824 12 12.7407 12C12.5991 12 12.4801 11.9523 12.3843 11.8564C12.2885 11.7606 12.2407 11.6416 12.2407 11.5V4.5C12.2407 4.35838 12.2885 4.23937 12.3843 4.14355C12.4801 4.04775 12.5991 4.00003 12.7407 4ZM10.0718 5.3252C10.2072 5.32529 10.3252 5.3755 10.4253 5.47559C10.5251 5.57552 10.5745 5.69302 10.5747 5.82812C10.5747 5.96365 10.5255 6.08245 10.4253 6.18262L8.65771 7.9502L10.4253 9.71777C10.5252 9.81779 10.5746 9.93606 10.5747 10.0713C10.5747 10.2067 10.5244 10.3247 10.4243 10.4248C10.3242 10.5248 10.2062 10.5752 10.0708 10.5752C9.93553 10.575 9.81731 10.5248 9.71729 10.4248L7.95068 8.65723L6.18311 10.4258C6.08298 10.5259 5.96406 10.5752 5.82861 10.5752C5.69339 10.5751 5.57511 10.5256 5.4751 10.4258C5.37501 10.3257 5.32479 10.2067 5.32471 10.0713C5.32482 9.93597 5.37505 9.81783 5.4751 9.71777L7.24365 7.9502L5.4751 6.18164C5.37528 6.08164 5.32479 5.9643 5.32471 5.8291C5.32471 5.69358 5.37493 5.57478 5.4751 5.47461C5.57522 5.3746 5.69417 5.3252 5.82959 5.3252C5.96478 5.3254 6.08313 5.37561 6.18311 5.47559L7.95068 7.24316L9.71826 5.47559C9.81843 5.37542 9.93626 5.3252 10.0718 5.3252Z" fill="#1F1F1F"/>
</svg>
