<svg width="16" height="16" viewBox="0 0 16 16" fill="none" xmlns="http://www.w3.org/2000/svg">
<path d="M7.27778 11.8398L6 11.125M6 11.125L2 13V3.875L6 2M6 11.125V2M6 2L10 3.875M10 3.875L14 2V6.5M10 3.875V6.5" stroke="#cecece" stroke-linecap="round" stroke-linejoin="round"/>
<path d="M11.9648 8C12.5651 8.00003 13.1522 8.17821 13.6514 8.51172C14.1504 8.84525 14.5389 9.31949 14.7686 9.87402C14.9982 10.4286 15.0586 11.0392 14.9414 11.6279C14.8242 12.2165 14.5348 12.7573 14.1104 13.1816C13.7434 13.5485 13.0282 14.1819 11.9648 15.082C10.9572 14.2383 10.2413 13.6052 9.81836 13.1816C9.39396 12.7574 9.10553 12.2164 8.98828 11.6279C8.87111 11.0393 8.93054 10.4286 9.16016 9.87402C9.38985 9.3194 9.77917 8.84525 10.2783 8.51172C10.7775 8.17818 11.3645 8 11.9648 8ZM11.9648 10.0225C11.4063 10.0226 10.9533 10.4756 10.9531 11.0342C10.9531 11.5929 11.4062 12.0458 11.9648 12.0459C12.5236 12.0459 12.9766 11.593 12.9766 11.0342C12.9764 10.4756 12.5235 10.0225 11.9648 10.0225Z" fill="#1386FA"/>
</svg>
