<svg width="28" height="28" viewBox="0 0 28 28" fill="none" xmlns="http://www.w3.org/2000/svg">
<path d="M10.0051 22H7C5.89543 22 5 21.1046 5 20V8C5 6.89543 5.89543 6 7 6H19C20.1046 6 21 6.89543 21 8V9.5" stroke="#aaaaaa" stroke-width="1.4" stroke-linecap="round"/>
<path d="M14.3789 15.5859C14.3789 14.4814 15.2743 13.5859 16.3789 13.5859H22.9679C24.0725 13.5859 24.9679 14.4814 24.9679 15.5859V20.9977C24.9679 22.1023 24.0725 22.9977 22.9679 22.9977H16.3789C15.2743 22.9977 14.3789 22.1023 14.3789 20.9977V15.5859Z" stroke="#aaaaaa" stroke-width="1.4"/>
<path d="M19.6738 13.9727C19.6738 15.1978 19.6738 15.8847 19.6738 17.1099" stroke="#aaaaaa" stroke-width="1.4" stroke-linecap="round"/>
<line x1="12.3166" y1="10.8953" x2="8.7166" y2="10.8953" stroke="#aaaaaa" stroke-width="1.4" stroke-linecap="round"/>
<line x1="10.3166" y1="14.8953" x2="8.7166" y2="14.8953" stroke="#aaaaaa" stroke-width="1.4" stroke-linecap="round"/>
<line x1="8.69707" y1="4.7" x2="8.69707" y2="5.3" stroke="#aaaaaa" stroke-width="1.4" stroke-linecap="round"/>
<line x1="13.198" y1="4.7" x2="13.198" y2="5.3" stroke="#aaaaaa" stroke-width="1.4" stroke-linecap="round"/>
<line x1="17.7" y1="4.7" x2="17.7" y2="5.3" stroke="#aaaaaa" stroke-width="1.4" stroke-linecap="round"/>
</svg>
