<svg width="16" height="16" viewBox="0 0 16 16" fill="none" xmlns="http://www.w3.org/2000/svg">
<path d="M10.6354 14H12.8C13.4627 14 14 13.4627 14 12.8V6.33393C14 6.04545 13.8961 5.76663 13.7073 5.54853L10.9943 2.41462C10.7664 2.15132 10.4353 2.00003 10.0871 2.00003L5.20001 2C4.53726 2 4 2.53726 4 3.20001V5" stroke="#cecece" stroke-linecap="round"/>
<path fill-rule="evenodd" clip-rule="evenodd" d="M5.21429 8.28571C4.7028 8.28571 4.21226 8.4889 3.85058 8.85058C3.4889 9.21226 3.28571 9.7028 3.28571 10.2143V13.8571C2.32143 13.8571 2.94144 13.8571 2 13.8571V10.2143C2 9.3618 2.33865 8.54424 2.94144 7.94144C3.54424 7.33865 4.3618 7 5.21429 7C6.06677 7 6.88433 7.33865 7.48713 7.94144C8.08992 8.54424 8.42857 9.3618 8.42857 10.2143V12.5714C8.42857 13.0829 8.22538 13.5735 7.86371 13.9351C7.50203 14.2968 7.01149 14.5 6.5 14.5C5.98851 14.5 5.49797 14.2968 5.13629 13.9351C4.77462 13.5735 4.57143 13.0829 4.57143 12.5714V10.2143C4.57143 10.0438 4.63916 9.88028 4.75972 9.75972C4.88028 9.63916 5.04379 9.57143 5.21429 9.57143C5.38478 9.57143 5.5483 9.63916 5.66885 9.75972C5.78941 9.88028 5.85714 10.0438 5.85714 10.2143V12.5714C5.85714 12.7419 5.92487 12.9054 6.04543 13.026C6.16599 13.1466 6.3295 13.2143 6.5 13.2143C6.6705 13.2143 6.83401 13.1466 6.95457 13.026C7.07513 12.9054 7.14286 12.7419 7.14286 12.5714V10.2143C7.14286 9.7028 6.93967 9.21226 6.57799 8.85058C6.21631 8.4889 5.72578 8.28571 5.21429 8.28571Z" fill="#1386FA"/>
<path d="M3.28571 13.8571C3.28571 14.2122 2.9979 14.5 2.64286 14.5C2.28782 14.5 2 14.2122 2 13.8571C2 13.5021 2.28782 13.2143 2.64286 13.2143C2.9979 13.2143 3.28571 13.5021 3.28571 13.8571Z" fill="#1386FA"/>
</svg>
