<svg width="28" height="28" viewBox="0 0 28 28" fill="none" xmlns="http://www.w3.org/2000/svg">
<path d="M24.3559 6H13.1846C12.08 6 11.1846 6.89543 11.1846 8V18.9222C11.1846 20.0268 12.08 20.9222 13.1846 20.9222H18M24.9602 17.3114V18.9222C24.9602 20.0268 24.0648 20.9222 22.9602 20.9222C22.6611 20.9222 22.3622 20.9222 22.0903 20.9222" stroke="#cecece" stroke-width="1.4" stroke-linecap="round"/>
<path d="M20 10H26.5M20 13H25" stroke="#007FFF" stroke-width="1.4" stroke-linecap="round"/>
<path d="M10.9544 12.0977H6.97266C6.39886 12.0977 5.8527 12.3441 5.47305 12.7743L2.50039 16.143C2.17794 16.5084 2 16.979 2 17.4664V19.6945C2 20.4438 2.60743 21.0512 3.35673 21.0512" stroke="#cecece" stroke-width="1.4" stroke-linecap="round"/>
<circle cx="7.5" cy="21" r="2" stroke="#cecece" stroke-width="1.4" stroke-linecap="round"/>
<circle cx="20" cy="21" r="2" stroke="#cecece" stroke-width="1.4" stroke-linecap="round"/>
</svg>
