<svg width="16" height="16" viewBox="0 0 16 16" fill="none" xmlns="http://www.w3.org/2000/svg">
<path d="M12.666 6.19922H3.19923V11.4658C3.19923 11.849 3.20014 12.1007 3.21583 12.293C3.23097 12.4782 3.25693 12.5557 3.27931 12.5996C3.34965 12.7376 3.46184 12.8497 3.59962 12.9199C3.64352 12.9423 3.72091 12.9683 3.90626 12.9834C4.09855 12.9991 4.35028 13 4.73341 13H11.1328C11.5161 13 11.7678 12.9991 11.96 12.9834C12.1447 12.9683 12.2216 12.9423 12.2656 12.9199C12.4039 12.8495 12.5168 12.7372 12.5869 12.5996C12.6093 12.5558 12.6353 12.4783 12.6504 12.293C12.6661 12.1007 12.666 11.849 12.666 11.4658V6.19922ZM5.26759 10.333C5.27182 10.333 5.27606 10.3339 5.28028 10.334C5.43689 10.3375 5.58756 10.4014 5.69728 10.5137C5.80668 10.6258 5.86614 10.7763 5.86622 10.9326V10.9346C5.86621 10.9387 5.86729 10.9431 5.8672 10.9473C5.86347 11.1063 5.79676 11.2583 5.68165 11.3682C5.56993 11.4747 5.42159 11.5322 5.26759 11.5322L5.26661 11.5332C5.26211 11.5332 5.25745 11.5343 5.25294 11.5342C4.92742 11.5263 4.6662 11.2601 4.66603 10.9346V10.9326C4.6662 10.6014 4.93633 10.333 5.26759 10.333ZM7.93458 10.333C8.09599 10.3331 8.25047 10.3982 8.36329 10.5137C8.47619 10.6292 8.53794 10.7858 8.53419 10.9473C8.53049 11.1063 8.46367 11.2583 8.34864 11.3682C8.237 11.4746 8.08848 11.5321 7.93458 11.5322L7.93263 11.5332C7.9284 11.5332 7.92417 11.5343 7.91993 11.5342H7.91798C7.59268 11.5261 7.33319 11.26 7.33302 10.9346V10.9326C7.33319 10.6015 7.60151 10.3332 7.93263 10.333H7.93458ZM10.6006 10.333C10.7621 10.333 10.9174 10.3982 11.0303 10.5137C11.143 10.6291 11.2048 10.785 11.2012 10.9463V10.9482C11.1975 11.1074 11.1298 11.2583 11.0147 11.3682C10.9029 11.4748 10.7547 11.5323 10.6006 11.5322L10.5996 11.5332C10.5952 11.5332 10.5903 11.5343 10.5859 11.5342C10.2605 11.5262 10.0002 11.2601 10 10.9346V10.9326C10.0002 10.6014 10.2693 10.333 10.6006 10.333ZM5.26759 7.66602C5.42915 7.66602 5.58438 7.7311 5.69728 7.84668C5.81013 7.96224 5.87097 8.1188 5.8672 8.28027C5.86347 8.43944 5.79687 8.59228 5.68165 8.70215C5.56995 8.80859 5.42152 8.86524 5.26759 8.86523L5.26661 8.86621C5.26211 8.8662 5.25745 8.8673 5.25294 8.86719C4.92731 8.85932 4.66603 8.5933 4.66603 8.26758C4.66603 7.93621 4.93622 7.66602 5.26759 7.66602ZM7.93458 7.66602C8.09591 7.66609 8.25048 7.73134 8.36329 7.84668C8.47619 7.96223 8.53794 8.11877 8.53419 8.28027C8.53049 8.43946 8.46387 8.59226 8.34864 8.70215C8.237 8.80862 8.08847 8.86515 7.93458 8.86523L7.93263 8.86621C7.9284 8.8662 7.92417 8.86729 7.91993 8.86719H7.91798C7.59258 8.85907 7.33302 8.59314 7.33302 8.26758C7.33302 7.93632 7.60141 7.66619 7.93263 7.66602H7.93458ZM10.6006 7.66602C10.932 7.66602 11.2012 7.93523 11.2012 8.2666C11.2012 8.42824 11.1352 8.58436 11.0195 8.69727C10.9073 8.80663 10.757 8.86532 10.6006 8.86523L10.5996 8.86621C10.5952 8.8662 10.5903 8.86729 10.5859 8.86719C10.2604 8.85924 10 8.59325 10 8.26758C10 7.93621 10.2692 7.66602 10.6006 7.66602ZM13.8662 11.4658C13.8662 11.8291 13.8673 12.1382 13.8467 12.3906C13.8255 12.65 13.7782 12.9023 13.6553 13.1436C13.4698 13.5076 13.174 13.8041 12.8106 13.9893C12.5694 14.1121 12.317 14.1585 12.0576 14.1797C11.8052 14.2003 11.4963 14.1992 11.1328 14.1992H4.73341C4.37005 14.1992 4.06106 14.2003 3.8086 14.1797C3.54914 14.1585 3.29601 14.1122 3.0547 13.9893C2.6909 13.8039 2.39525 13.5072 2.20997 13.1436C2.08722 12.9024 2.04072 12.6499 2.01954 12.3906C1.99894 12.1382 2.00001 11.8292 2.00001 11.4658V5.06641C2.00001 4.70294 1.99892 4.39403 2.01954 4.1416C2.04073 3.88226 2.08713 3.62987 2.20997 3.38867C2.39517 3.02519 2.69096 2.72939 3.0547 2.54395C3.29602 2.42098 3.54914 2.37471 3.8086 2.35352C4.04539 2.33419 4.33159 2.33303 4.66603 2.33301V1.59961C4.66603 1.26824 4.93524 1 5.26661 1C5.59783 1.00018 5.86622 1.26835 5.86622 1.59961V2.33301H10V1.59961C10 1.26824 10.2682 1 10.5996 1C10.931 1 11.1992 1.26824 11.1992 1.59961V2.33301C11.5341 2.33303 11.8207 2.33415 12.0576 2.35352C12.317 2.37472 12.5693 2.42104 12.8106 2.54395C13.174 2.72916 13.4698 3.02473 13.6553 3.38867C13.7782 3.62998 13.8255 3.88224 13.8467 4.1416C13.8673 4.39399 13.8662 4.703 13.8662 5.06641V11.4658Z" fill="#bdbdbd"/>
</svg>
