<svg width="18" height="18" viewBox="0 0 18 18" fill="none" xmlns="http://www.w3.org/2000/svg">
<path d="M14.5 14.5L11.5245 11.5245M11.5245 11.5245C11.9338 11.1152 12.2585 10.6293 12.48 10.0946C12.7015 9.55978 12.8156 8.98661 12.8156 8.40778C12.8156 7.82894 12.7015 7.25577 12.48 6.72099C12.2585 6.18622 11.9338 5.70031 11.5245 5.29101C11.1152 4.88171 10.6293 4.55703 10.0946 4.33552C9.55978 4.11401 8.98661 4 8.40778 4C7.82894 4 7.25577 4.11401 6.72099 4.33552C6.18622 4.55703 5.70031 4.88171 5.29101 5.29101C4.46439 6.11763 4 7.23876 4 8.40778C4 9.57679 4.46439 10.6979 5.29101 11.5245C6.11763 12.3512 7.23876 12.8156 8.40778 12.8156C9.57679 12.8156 10.6979 12.3512 11.5245 11.5245Z" stroke="white" stroke-width="1.5" stroke-linecap="round" stroke-linejoin="round"/>
</svg>
