<svg width="28" height="28" viewBox="0 0 28 28" fill="none" xmlns="http://www.w3.org/2000/svg">
<path d="M6 7.5C6 6.39543 6.89543 5.5 8 5.5H17.9216C18.452 5.5 18.9607 5.71071 19.3358 6.08579L22.4142 9.16421C22.7893 9.53929 23 10.048 23 10.5784V20.5C23 21.6046 22.1046 22.5 21 22.5H8C6.89543 22.5 6 21.6046 6 20.5V7.5Z" stroke="#a5a8ac" stroke-width="1.4" stroke-linecap="round"/>
<path d="M10.5 5.5H17.25V9C17.25 9.55228 16.8023 10 16.25 10H11.5C10.9477 10 10.5 9.55228 10.5 9V5.5Z" stroke="#a5a8ac" stroke-width="1.4" stroke-linecap="round"/>
<path d="M9 19.5V16C9 15.1716 9.67157 14.5 10.5 14.5H18.5C19.3284 14.5 20 15.1716 20 16V19.5" stroke="#a5a8ac" stroke-width="1.4" stroke-linecap="round"/>
</svg>
