<svg width="28" height="28" viewBox="0 0 28 28" fill="none" xmlns="http://www.w3.org/2000/svg">
<path d="M12.1538 6H8C6.89543 6 6 6.89543 6 8V20C6 21.1046 6.89543 22 8 22H20C21.1046 22 22 21.1047 22 20.0001C22 19.0975 22 17.8311 22 16.0889" stroke="#a5a8ac" stroke-width="1.4" stroke-linecap="round"/>
<path d="M21.9708 4.90938L23.6591 6.59778C24.1668 7.10547 24.1675 7.92902 23.6598 8.43672L16.4398 15.6571C16.2873 15.8096 16.0988 15.922 15.8922 15.9838L13.4837 16.7033C12.4932 16.999 11.57 16.0759 11.8658 15.0854L12.586 12.6774C12.6478 12.4708 12.7602 12.2823 12.9127 12.1298L20.1327 4.90938C20.6403 4.40168 21.4632 4.40168 21.9708 4.90938Z" stroke="#a5a8ac" stroke-width="1.4"/>
</svg>
