<svg width="28" height="28" viewBox="0 0 28 28" fill="none" xmlns="http://www.w3.org/2000/svg">
<path d="M24.3526 6H13.1826C12.078 6 11.1826 6.89543 11.1826 8V18.922C11.1826 20.0266 12.078 20.922 13.1826 20.922H17.5M24.9568 17.3112V18.922C24.9568 20.0266 24.0614 20.922 22.9568 20.922C22.6578 20.922 22.3589 20.922 22.0872 20.922" stroke="#a5a8ac" stroke-width="1.4" stroke-linecap="round"/>
<path d="M25 9L20.0088 13.9875" stroke="#a5a8ac" stroke-width="1.4" stroke-linecap="round"/>
<path d="M24.9912 14L20 9.01249" stroke="#a5a8ac" stroke-width="1.4" stroke-linecap="round"/>
<path d="M10.9534 12.0977H6.97228C6.39845 12.0977 5.85227 12.3441 5.47261 12.7744L2.50032 16.143C2.17791 16.5084 2 16.9789 2 17.4662V19.6945C2 20.4437 2.60736 21.0511 3.35658 21.0511" stroke="#a5a8ac" stroke-width="1.4" stroke-linecap="round"/>
<circle cx="7.5" cy="21" r="2" stroke="#a5a8ac" stroke-width="1.4" stroke-linecap="round"/>
<circle cx="20" cy="21" r="2" stroke="#a5a8ac" stroke-width="1.4" stroke-linecap="round"/>
</svg>
