<svg width="28" height="28" viewBox="0 0 28 28" fill="none" xmlns="http://www.w3.org/2000/svg">
<path d="M14.2083 6.08203L17 6.08203C18.1046 6.08203 19 6.97746 19 8.08203L19 9.37622M9.10417 6.08203L6 6.08203C4.89543 6.08203 4 6.97746 4 8.08203L4 19.082C4 20.1866 4.89543 21.082 6 21.082L9.25448 21.082" stroke="#3B4250" stroke-width="1.4" stroke-linecap="round"/>
<path d="M12 10.7836L7.7 10.782" stroke="#3B4250" stroke-width="1.4" stroke-linecap="round"/>
<line x1="9.3" y1="14.782" x2="7.7" y2="14.782" stroke="#3B4250" stroke-width="1.4" stroke-linecap="round"/>
<path d="M13.3789 15.5882C13.3789 14.4837 14.2743 13.5882 15.3789 13.5882H21.9679C23.0725 13.5882 23.9679 14.4837 23.9679 15.5882V21C23.9679 22.1046 23.0725 23 21.9679 23H15.3789C14.2743 23 13.3789 22.1046 13.3789 21V15.5882Z" stroke="#007FFF" stroke-width="1.4"/>
<path d="M18.6738 13.9743C18.6738 15.1995 18.6738 15.8864 18.6738 17.1116" stroke="#007FFF" stroke-width="1.4" stroke-linecap="round"/>
<path d="M14.5 4.59863C15.3283 4.59863 15.9998 5.27039 16 6.09863C16 6.92706 15.3284 7.59863 14.5 7.59863H8.5C7.67157 7.59863 7 6.92706 7 6.09863C7.00021 5.27039 7.6717 4.59863 8.5 4.59863H14.5Z" fill="#3B4250"/>
</svg>
