<svg width="28" height="28" viewBox="0 0 28 28" fill="none" xmlns="http://www.w3.org/2000/svg">
<path d="M12 22.75H7C6.73478 22.75 6.48043 22.6446 6.29289 22.4571C6.10536 22.2696 6 22.0152 6 21.75V20.504C6 17.698 9.974 15.5 14 15.5C15.8831 15.5 17.7558 15.9809 19.2153 16.78M17.604 8.854C17.604 9.32728 17.5108 9.79593 17.3297 10.2332C17.1485 10.6704 16.8831 11.0678 16.5484 11.4024C16.2138 11.7371 15.8164 12.0025 15.3792 12.1837C14.9419 12.3648 14.4733 12.458 14 12.458C13.5267 12.458 13.0581 12.3648 12.6208 12.1837C12.1836 12.0025 11.7862 11.7371 11.4516 11.4024C11.1169 11.0678 10.8515 10.6704 10.6703 10.2332C10.4892 9.79593 10.396 9.32728 10.396 8.854C10.396 7.89816 10.7757 6.98147 11.4516 6.30559C12.1275 5.62971 13.0442 5.25 14 5.25C14.9558 5.25 15.8725 5.62971 16.5484 6.30559C17.2243 6.98147 17.604 7.89816 17.604 8.854Z" stroke="#a5a8ac" stroke-width="1.4" stroke-linecap="round" stroke-linejoin="round"/>
<path d="M14.0015 20.2108L17.2632 23.4714" stroke="#a5a8ac" stroke-width="1.4" stroke-linecap="round"/>
<path d="M23.4541 17.5033L17.3825 23.5733" stroke="#a5a8ac" stroke-width="1.4" stroke-linecap="round"/>
</svg>
