<svg width="28" height="28" viewBox="0 0 28 28" fill="none" xmlns="http://www.w3.org/2000/svg">
<path d="M11.5 5H16.5C16.8978 5 17.2794 5.15804 17.5607 5.43934C17.842 5.72064 18 6.10218 18 6.5C18 7.42826 17.6313 8.3185 16.9749 8.97487C16.3185 9.63125 15.4283 10 14.5 10H13.5C12.5717 10 11.6815 9.63125 11.0251 8.97487C10.3687 8.3185 10 7.42826 10 6.5C10 6.10218 10.158 5.72064 10.4393 5.43934C10.7206 5.15804 11.1022 5 11.5 5Z" stroke="#a5a8ac" stroke-width="1.4" stroke-linecap="round" stroke-linejoin="round"/>
<path d="M11.5 23H10C8.93913 23 7.92172 22.5786 7.17157 21.8284C6.42143 21.0783 6 20.0609 6 19V18C5.99956 16.2357 6.58237 14.5207 7.65771 13.122C8.73305 11.7233 10.2406 10.7193 11.9458 10.2663C13.6509 9.81322 15.458 9.93656 17.0858 10.6171C18.7135 11.2976 20.0707 12.4971 20.946 14.029" stroke="#a5a8ac" stroke-width="1.4" stroke-linecap="round" stroke-linejoin="round"/>
<path d="M16 18L16 23.5M16 23.5L14 21.5M16 23.5L18 21.5" stroke="#a5a8ac" stroke-width="1.4" stroke-linecap="round" stroke-linejoin="round"/>
<path d="M22 23.5L22 18M22 18L20 20M22 18L24 20" stroke="#a5a8ac" stroke-width="1.4" stroke-linecap="round" stroke-linejoin="round"/>
</svg>
