<svg width="28" height="28" viewBox="0 0 28 28" fill="none" xmlns="http://www.w3.org/2000/svg">
<path d="M23.3927 13.6242L24.4665 14.698C24.9741 15.2057 24.9748 16.0292 24.4672 16.5369L18.4707 22.5336C18.3182 22.6861 18.1297 22.7985 17.9231 22.8603L16.3915 23.3174C15.4008 23.6134 14.4776 22.6902 14.7736 21.6995L15.2314 20.1685C15.2932 19.9619 15.4056 19.7734 15.5581 19.6209L21.5545 13.6242C22.0622 13.1165 22.885 13.1165 23.3927 13.6242Z" stroke="#007FFF" stroke-width="1.4"/>
<path d="M10.5 21.9648H8C6.89543 21.9648 6 21.0694 6 19.9648V8.00026C6 6.89569 6.89543 6.00026 8 6.00026H20C21.1046 6.00026 22 6.89569 22 8.00026V9.50026" stroke="#3B4250" stroke-width="1.4" stroke-linecap="round"/>
<path d="M14 6.73047L13.9995 11.4642" stroke="#3B4250" stroke-width="1.4" stroke-linecap="round"/>
</svg>
