<svg width="28" height="28" viewBox="0 0 28 28" fill="none" xmlns="http://www.w3.org/2000/svg">
<path d="M21.25 17V20.25M21.25 20.25V23.5M21.25 20.25H18M21.25 20.25H24.5" stroke="#007FFF" stroke-width="1.4" stroke-linecap="round" stroke-linejoin="round"/>
<path d="M14 9V12.2263C14 12.5447 14.1035 12.8568 14.2988 13.1277C14.4942 13.3985 14.7737 13.6174 15.106 13.7597L18 15" stroke="#3B4250" stroke-width="1.4" stroke-linecap="round" stroke-linejoin="round"/>
<path d="M22 13C22 11.4178 21.5308 9.87103 20.6518 8.55544C19.7727 7.23985 18.5233 6.21447 17.0615 5.60897C15.5997 5.00347 13.9911 4.84504 12.4393 5.15372C10.8874 5.4624 9.46197 6.22433 8.34315 7.34315C7.22433 8.46197 6.4624 9.88743 6.15372 11.4393C5.84504 12.9911 6.00347 14.5997 6.60897 16.0615C7.21447 17.5233 8.23985 18.7727 9.55544 19.6518C10.871 20.5308 12.4178 21 14 21" stroke="#3B4250" stroke-width="1.4" stroke-linecap="round" stroke-linejoin="round"/>
</svg>
